<svg id="Layer_1" xmlns="http://www.w3.org/2000/svg" viewBox="0 0 351 180"><style>.st0{opacity:.4}.st1{stroke:#000;stroke-width:.3;stroke-miterlimit:10}.st2{fill:#181717}.st3{fill:#ee2c67}</style><g class="st0"><path class="st1" d="M121.4 41.2c.1 0 .2 0 .2.1.1.1.1.2.1.3L102.4 95c0 .1-.1.2-.2.2h-.3l-47-32.6c-.1-.1-.2-.2-.1-.3 0-.1.1-.2.2-.3l66.4-20.8zm-19.5 53.1l19-52.3-65.1 20.4 46.1 31.9z" id="triangle36_143_"/><path class="st1" d="M55 62c.1 0 .1 0 .2.1l47.1 32.5c.1.1.1.2.1.3l2 75.2c0 .2-.1.3-.3.3-.1 0-.3 0-.4-.2l-49-107.7c-.1-.1 0-.3.1-.4.1-.1.2-.1.2-.1zm46.8 33l-46-31.7 47.9 105.2-1.9-73.5z" id="triangle36_142_"/><path class="st1" d="M2.4 9.3c.1 0 .2 0 .3.1l52.6 52.7.1.1 49 107.8c.1.2 0 .3-.1.4-.2.1-.3 0-.4-.1L2.2 9.8c-.1 0-.1-.1-.1-.2-.1-.2.1-.3.3-.3zm52.4 53.2L4.3 11.9l97.6 153.9L54.8 62.5z" id="triangle36_141_"/><path class="st1" d="M106.1 23.1c.1 0 .2 0 .3.1l15.4 18.1c.1.1.1.2.1.3 0 .1-.1.2-.2.2L55.1 62.6c-.1 0-.3 0-.4-.2-.1-.1 0-.3.1-.4l51-38.9h.3zm14.8 18.2L106 23.9 56.7 61.4l64.2-20.1z" id="triangle36_140_"/><path class="st1" d="M2.4 9.3l103.7 13.8c.1 0 .2.1.3.2 0 .1 0 .3-.1.3l-51 38.9c-.1.1-.3.1-.4 0L2.2 9.9c-.1-.1-.1-.2-.1-.3-.1-.2.1-.3.3-.3zm102.8 14.4L3.3 10l51.8 51.8 50.1-38.1z" id="triangle36_139_"/><path class="st1" d="M191.6 9.8c.1 0 .3.1.3.2 0 .2 0 .3-.2.4l-70.1 31.4c-.1.1-.3 0-.4-.1l-15.4-18.1c-.1-.1-.1-.2-.1-.3 0-.1.1-.2.3-.2l85.6-13.3c-.1 0-.1 0 0 0zm-70.1 31.3l67.7-30.3-82.5 12.9 14.8 17.4z" id="triangle36_138_"/><path class="st1" d="M2.4 9.3l189.2.5c.2 0 .3.1.3.3 0 .2-.1.3-.3.3l-85.5 13.3h-.1L2.4 9.9c-.2 0-.3-.2-.3-.4 0-.1.1-.2.3-.2zm185 1.1L7.5 9.9l98.6 13.2 81.3-12.7z" id="triangle36_137_"/><path class="st1" d="M121.4 41.2s.1 0 0 0c.2 0 .3.2.3.3l3.6 56.9c0 .1 0 .2-.1.3-.1.1-.2.1-.3.1l-23-3.5c-.1 0-.2-.1-.2-.2-.1-.1-.1-.2 0-.3L121 41.4c.2-.1.3-.2.4-.2zm3.3 56.8l-3.5-54.9-18.7 51.5 22.2 3.4z" id="triangle36_136_"/><path class="st1" d="M102.1 94.5l23 3.5c.1 0 .2.1.2.1.1.1.1.2 0 .3l-21 71.7c0 .2-.2.3-.4.2-.2 0-.3-.2-.3-.3l-2-75.1v-.1c.2-.1.3-.3.5-.3zm22.6 4.1l-22.2-3.4 1.9 72.7 20.3-69.3z" id="triangle36_135_"/><path class="st1" d="M191.6 9.8c.1 0 .2 0 .3.1.1.1.1.3 0 .4l-66.5 88.2c-.1.1-.2.2-.4.1s-.2-.2-.2-.3l-3.6-56.9c0-.1.1-.3.2-.3l70.1-31.4c0 .1 0 .1.1.1zm-66.3 87.7L190.5 11l-68.8 30.8 3.6 55.7z" id="triangle36_134_"/><path class="st1" d="M191.6 9.8c.1 0 .1 0 .2.1s.2.3.1.4l-87.5 160c-.1.1-.3.2-.4.1-.2-.1-.2-.2-.2-.4l21-71.7s0-.1.1-.1L191.4 10c0-.2.1-.2.2-.2zm-86.3 157.5L189.1 14l-63.7 84.6-20.1 68.7z" id="triangle36_133_"/></g><path class="st2" d="M124.4 67.3v12.4h-10.1V42.3h16.1c3.4 0 6.9.6 9.9 3.4s3.6 5.9 3.6 9.1c0 3-.4 6.5-3.4 9.3-3 2.9-6.7 3.3-9.7 3.3h-6.4zm0-7.8h3.4c1.1 0 3-.1 4.3-1.2 1.2-1 1.3-2.5 1.3-3.4 0-1-.1-2.4-1.2-3.4-1.2-1.2-3-1.3-4.3-1.3h-3.4v9.3zm36.8-17.2c2.9 0 6.7.4 9.5 3.3 2.2 2.2 3.3 5.4 3.3 8.4 0 3.2-1.2 6-3.1 7.8-1.5 1.4-3.6 2.2-5.4 2.6l12.2 15.3h-12.6l-9.7-14.4v14.4h-10.1V42.3h15.9zm-5.7 16.8h1.9c1.5 0 3.7-.4 4.9-1.5.8-.7 1.3-2 1.3-3.1s-.5-2.4-1.3-3.1c-.9-.9-2.6-1.5-4.8-1.5h-1.9v9.2z"/><path class="st2" d="M211.4 75c-4 3.6-9.6 5.6-15.4 5.6s-11.4-1.9-15.4-5.6c-4.1-3.8-6.1-9-6.1-14s2-10.3 6.1-14c4-3.6 9.6-5.6 15.4-5.6s11.4 1.9 15.4 5.6c4.1 3.8 6.1 9 6.1 14 .1 5-1.9 10.2-6.1 14zm-23.2-21.1c-2.1 2-3.1 4.7-3.1 7.4 0 3.3 1.6 5.6 3.1 7 1.9 1.7 4.5 3 7.9 3 3.4 0 6-1.2 7.8-2.9 1.8-1.7 3.2-4.3 3.2-7.2 0-2.9-1.3-5.5-3.2-7.2-2.2-2-5.1-3-7.8-3-2.8-.1-5.8.9-7.9 2.9zm30.4 25.8V42.3h13.3c3.9 0 10.5.5 15.5 5.2 4.6 4.2 5.4 9.6 5.4 13.6 0 4.9-1.3 9.3-5.1 13-3.1 3-8.3 5.7-15 5.7h-14.1zm10.1-8.2h2c2.5 0 5.9-.2 8.5-2.7 1.3-1.2 3-3.5 3-7.7 0-3.5-1.1-6.5-3-8.2-2.4-2.1-5.5-2.4-8.1-2.4h-2.5v21zm35.5-29.2v22.2c0 1.6.1 4 2 5.8 1.2 1.1 3 1.8 4.8 1.8s3.6-.7 4.7-1.6c2.3-2 2.3-4.7 2.3-6.8V42.3h10v21.5c0 3.9-.2 8-4.4 12.1-3.3 3.2-7.4 4.7-12.9 4.7-6.1 0-10.5-2-12.9-4.5-3.4-3.5-3.8-8.3-3.8-12.3V42.3h10.2zm55.3 36.4c-4 1.4-6.3 1.9-8.8 1.9-6.8 0-11.9-2.6-15.1-5.6-3.8-3.6-5.9-8.8-5.9-13.6 0-5.3 2.4-10.4 5.9-13.8 3.4-3.4 8.6-5.8 14.7-5.8 1.9 0 4.9.3 9.1 1.9v11.6c-3.3-3.9-7.1-4.1-8.8-4.1-2.9 0-5.1.8-7 2.5-2.4 2.1-3.4 5.1-3.4 7.7 0 2.6 1.1 5.4 3.2 7.3 1.7 1.5 4.4 2.6 7.2 2.6 1.5 0 5.3-.2 8.8-3.9v11.3zm20.2-27.8v29.2h-10.1V50.9h-8.3v-8.2H348v8.2h-8.3z"/><path class="st3" d="M116.9 113c2.2 2 5.4 3.8 8.9 3.8 2 0 3.3-.6 3.9-1.3.6-.6 1-1.4 1-2.4 0-.7-.3-1.6-1.1-2.2-1-.8-2.5-1.2-5-2l-2.6-.8c-1.6-.5-4-1.3-5.6-3-2-2.1-2.2-4.7-2.2-6.6 0-4.6 1.9-7.4 3.6-9 2-1.9 5.3-3.5 10-3.5 3.9 0 8.4 1.2 12 3l-4 7.6c-3-2.3-5.3-2.5-6.7-2.5-1 0-2.3.2-3.3 1.1-.6.6-1 1.2-1 2 0 .7.1 1.2.5 1.7.3.3 1 1 3.4 1.7l3.1.9c2.5.7 5 1.6 7.1 3.7 2 2 2.5 4.1 2.5 6.7 0 3.4-.9 6.7-3.7 9.4-3.3 3.2-7.4 3.8-11.5 3.8-2.5 0-4.8-.2-7.7-1.2-.6-.2-3.1-1.1-5.9-3l4.3-7.9zm42.6-18v29.2h-10.1V95h-8.3v-8.2h26.7V95h-8.3zm19.9-8.3v22.2c0 1.6.1 4 2 5.8 1.2 1.1 3 1.8 4.8 1.8 1.8 0 3.6-.7 4.7-1.6 2.3-2 2.3-4.7 2.3-6.8V86.7h10.1v21.5c0 3.9-.2 8-4.4 12.1-3.3 3.2-7.4 4.7-12.9 4.7-6.1 0-10.5-2-12.9-4.5-3.4-3.5-3.8-8.3-3.8-12.3V86.7h10.1zm25.4 37.5V86.7h13.3c3.9 0 10.5.5 15.5 5.2 4.6 4.2 5.4 9.6 5.4 13.6 0 4.9-1.3 9.3-5.1 13-3.1 3-8.3 5.7-15 5.7h-14.1zm10.1-8.3h2c2.5 0 5.9-.2 8.5-2.7 1.3-1.2 3-3.5 3-7.7 0-3.5-1.1-6.5-3-8.2-2.4-2.1-5.5-2.4-8.1-2.4h-2.5v21zm35.6-29.2v37.4h-10.1V86.7h10.1zm38.3 32.8c-4 3.6-9.6 5.6-15.4 5.6s-11.4-1.9-15.4-5.6c-4.1-3.8-6.1-9-6.1-14s2-10.3 6.1-14c4-3.6 9.6-5.6 15.4-5.6s11.4 1.9 15.4 5.6c4.1 3.8 6.1 9 6.1 14 .1 4.9-1.9 10.1-6.1 14zm-23.2-21.2c-2.1 2-3.1 4.7-3.1 7.4 0 3.3 1.6 5.6 3.1 7 1.9 1.7 4.5 3 7.9 3 3.4 0 6-1.2 7.8-2.9 1.8-1.7 3.2-4.3 3.2-7.2 0-2.9-1.3-5.5-3.2-7.2-2.2-2-5.1-3-7.8-3-2.8-.1-5.8.9-7.9 2.9z"/></svg>