<svg width="224" height="69" viewBox="0 0 224 69" xmlns="http://www.w3.org/2000/svg"><title>VALIC logo Light Grey</title><g fill="none" fill-rule="evenodd"><g transform="translate(212 55)"><circle stroke="#929396" cx="5" cy="5" r="5"/><path d="M4.385 5.483V7.66H3.3V2h1.518c1.736 0 1.953 1.088 1.953 1.742 0 .87-.434 1.306-1.302 1.523L7.421 7.66H6.12L4.385 5.483zM5.6 3.542c0-.653-.65-.871-1.084-.871H4.3v1.741c1.085 0 1.301-.217 1.301-.87z" fill="#929396"/></g><path d="M72.187 0L41.82 64.688h9.978l6.724-14.811H84.55l6.29 14.81h9.978L72.187 0zm-.434 20.473l9.11 20.692H62.426l9.327-20.692zm72.664-16.988h9.327V64.47h-9.327V3.485zm65.29 14.375c-6.724-6.099-13.015-6.752-16.485-6.752-13.232 0-22.125 9.801-22.125 23.305 0 12.85 9.327 22.87 22.125 22.87 7.375 0 13.014-3.703 16.485-6.97V61.42c-6.074 3.703-12.58 4.574-16.702 4.574-11.062 0-18.004-5.01-21.474-8.494-7.158-6.752-9.76-14.375-9.76-23.087 0-11.326 4.554-18.949 9.76-23.958 6.29-5.881 13.665-8.06 21.908-8.06 5.64 0 10.845 1.09 16.268 4.357V17.86zM117.955 3.485v52.273h17.786v8.93h-27.113V3.484h9.327zm-73.532 0l-16.92 42.69-17.135-42.69H.39l27.114 65.123L54.4 3.485h-9.978z" fill="#929396"/></g></svg>
